#!OML:ASF I:\Actors\actors\Patient Classification 1\Patient 1\Session 1\Subject1.ASF
:FULLY-SPECIFIED
:DEGREES
607
root 0.520362 17.5311 9.31112 3.11445 8.66116 -8.34879
lowerback 2.26416 -8.05687 -0.541223
upperback -4.26837 -10.6594 3.67768
thorax -4.88618 -5.21433 4.73435
lowerneck -5.09607 -11.9668 -11.3827
upperneck 37.515 -18.1758 4.40302
head 15.6191 -9.06201 0.930954
rclavicle -5.05907e-014 5.04913e-014
rhumerus -71.7589 31.8846 -92.0488
rradius 89.9396
rwrist 37.1866
rhand -29.4946 -22.363
rfingers 7.12502
rthumb -2.82939 -52.324
lclavicle -5.05907e-014 5.04913e-014
lhumerus -85.7444 -78.9999 177.518
lradius 60.1412
lwrist 33.197
lhand -11.1699 -25.269
lfingers 7.12502
lthumb 14.8568 4.17829
rfemur -1.4403 18.0961 28.1856
rtibia 11.1057
rfoot -16.3166 -27.1757
rtoes 4.90881
lfemur 5.95829 -34.8999 -11.0176
ltibia -3.48361
lfoot -9.39462 33.6834
ltoes -12.6485
608
root 0.516725 17.5332 9.31369 3.06697 8.66673 -8.31078
lowerback 2.29978 -8.11061 -0.535941
upperback -4.26054 -10.7281 3.75225
thorax -4.8796 -5.2479 4.81506
lowerneck -5.10213 -11.9061 -11.4185
upperneck 37.5275 -18.0491 4.33208
head 15.6073 -9.02103 0.930578
rclavicle 1.24141e-013 -4.17448e-014
rhumerus -71.8765 32.108 -92.2874
rradius 90.0958
rwrist 37.5571
rhand -30.1647 -22.7354
rfingers 7.12502
rthumb -3.47651 -52.6868
lclavicle 1.24141e-013 -4.17448e-014
lhumerus -87.2967 -79.0393 179.149
lradius 60.2777
lwrist 33.2414
lhand -10.9325 -25.0582
lfingers 7.12502
lthumb 15.0855 4.37209
rfemur -1.32535 18.1809 28.1965
rtibia 11.0407
rfoot -16.3608 -27.2183
rtoes 5.09507
lfemur 6.04813 -34.8682 -11.0839
ltibia -3.51886
lfoot -9.36389 33.6381
ltoes -12.6276
609
root 0.515883 17.5343 9.3134 3.03243 8.6726 -8.28018
lowerback 2.39259 -8.14792 -0.473326
upperback -4.28095 -10.7709 3.82111
thorax -4.94842 -5.26823 4.87224
lowerneck -5.17167 -11.8708 -11.4818
upperneck 37.5986 -17.9728 4.29471
head 15.654 -8.99713 0.931367
rclavicle 2.25372e-014 -4.25399e-014
rhumerus -72.0632 32.3469 -92.4872
rradius 90.359
rwrist 37.8935
rhand -30.4966 -22.9315
rfingers 7.12502
rthumb -3.79704 -52.8775
lclavicle 2.25372e-014 -4.25399e-014
lhumerus -88.7475 -79.0618 180.657
lradius 60.4926
lwrist 33.3122
lhand -10.8046 -24.7116
lfingers 7.12502
lthumb 15.2087 4.70937
rfemur -1.2711 18.1605 28.1741
rtibia 11.023
rfoot -16.3955 -27.1908
rtoes 5.15708
lfemur 6.03016 -34.7798 -11.1231
ltibia -3.43573
lfoot -9.37404 33.534
ltoes -12.5348
610
root 0.518132 17.534 9.31031 3.00379 8.67943 -8.26785
lowerback 2.52912 -8.16207 -0.326716
upperback -4.31067 -10.7772 3.88352
thorax -5.07116 -5.27181 4.8866
lowerneck -5.25447 -11.8507 -11.4803
upperneck 37.625 -17.9092 4.22551
head 15.6692 -8.97345 0.908156
rclavicle 4.59068e-014 -4.7112e-014
rhumerus -72.3156 32.5106 -92.6348
rradius 90.7232
rwrist 38.1606
rhand -30.5481 -22.9447
rfingers 7.12502
rthumb -3.8468 -52.8897
lclavicle 4.59068e-014 -4.7112e-014
lhumerus -90.3017 -79.1084 182.297
lradius 60.7458
lwrist 33.8514
lhand -10.7371 -24.3499
lfingers 7.12502
lthumb 15.2737 5.06619
rfemur -1.27944 18.0379 28.1267
rtibia 11.0438
rfoot -16.3564 -27.0984
rtoes 5.03224
lfemur 5.95074 -34.6432 -11.134
ltibia -3.30687
lfoot -9.33937 33.3948
ltoes -12.7552
611
root 0.517506 17.5347 9.30901 2.93225 8.77296 -8.20955
lowerback 2.70806 -8.19186 -0.264494
upperback -4.34104 -10.8093 3.91655
thorax -5.20691 -5.28502 4.92351
lowerneck -5.2396 -11.7996 -11.3228
upperneck 37.6203 -17.7985 4.07248
head 15.6087 -8.92483 0.846855
rclavicle -3.96948e-014 2.0276e-014
rhumerus -72.6284 32.5394 -92.7165
rradius 91.1869
rwrist 38.5382
rhand -30.6962 -22.9421
rfingers 7.12502
rthumb -3.98978 -52.8845
lclavicle -3.96948e-014 2.0276e-014
lhumerus -91.6796 -79.1281 183.735
lradius 61.0119
lwrist 34.629
lhand -10.5175 -24.1112
lfingers 7.12502
lthumb 15.4852 5.28868
rfemur -1.1857 17.9559 28.0758
rtibia 10.9994
rfoot -16.2993 -27.1235
rtoes 4.80446
lfemur 5.97805 -34.6184 -11.2351
ltibia -3.26732
lfoot -9.29224 33.2789
ltoes -13.0903
612
root 0.513511 17.5359 9.31024 2.88322 8.88613 -8.14381
lowerback 2.82246 -8.25921 -0.307523
upperback -4.36966 -10.8981 3.96891
thorax -5.27694 -5.32426 5.02622
lowerneck -5.24621 -11.7363 -11.2215
upperneck 37.6729 -17.7026 4.00626
head 15.6035 -8.87842 0.822254
rclavicle -1.29471e-013 3.8763e-015
rhumerus -72.8497 32.5993 -92.7073
rradius 91.6746
rwrist 39.1801
rhand -30.8762 -22.9579
rfingers 7.12502
rthumb -4.16359 -52.8969
lclavicle -1.29471e-013 3.8763e-015
lhumerus -91.8174 -79.1489 183.871
lradius 61.2206
lwrist 34.7819
lhand -9.87737 -23.8414
lfingers 7.12502
lthumb 16.1017 5.50966
rfemur -1.08978 17.9426 28.0476
rtibia 10.9598
rfoot -16.3398 -27.2039
rtoes 4.85525
lfemur 6.01208 -34.617 -11.3179
ltibia -3.27759
lfoot -9.23343 33.1633
ltoes -13.265
613
root 0.509581 17.5361 9.31189 2.89738 8.95849 -8.16283
lowerback 2.82747 -8.31495 -0.271047
upperback -4.38855 -10.9674 4.04142
thorax -5.28701 -5.35867 5.08753
lowerneck -5.34048 -11.7296 -11.1983
upperneck 37.7622 -17.69 3.97338
head 15.6614 -8.86888 0.798146
rclavicle 7.82963e-014 -2.51463e-014
rhumerus -72.9067 32.6323 -92.6402
rradius 92.0661
rwrist 39.9438
rhand -31.0487 -22.9565
rfingers 7.12502
rthumb -4.33015 -52.8923
lclavicle 7.82963e-014 -2.51463e-014
lhumerus -91.9724 -79.224 183.98
lradius 61.427
lwrist 34.4645
lhand -9.19584 -23.5135
lfingers 7.12502
lthumb 16.7579 5.78331
rfemur -1.10548 17.9474 28.0897
rtibia 10.9772
rfoot -16.3785 -27.2605
rtoes 4.92623
lfemur 5.96912 -34.6284 -11.2484
ltibia -3.30263
lfoot -9.15696 33.1162
ltoes -13.3205
614
root 0.506096 17.5362 9.31374 2.91843 9.05491 -8.22163
lowerback 2.82563 -8.35456 -0.158482
upperback -4.4203 -11.0102 4.112
thorax -5.32341 -5.382 5.10679
lowerneck -5.4349 -11.7489 -11.171
upperneck 37.8491 -17.6861 3.86566
head 15.7087 -8.87116 0.741333
rclavicle 2.06239e-014 -7.15625e-015
rhumerus -72.941 32.6259 -92.5579
rradius 92.3861
rwrist 40.7155
rhand -31.3906 -23.1505
rfingers 7.12502
rthumb -4.66035 -53.0792
lclavicle 2.06239e-014 -7.15625e-015
lhumerus -94.2513 -79.303 186.254
lradius 61.5693
lwrist 33.5312
lhand -9.93551 -23.6666
lfingers 7.12502
lthumb 16.0458 5.68897
rfemur -1.12518 17.9381 28.1705
rtibia 10.9715
rfoot -16.4156 -27.3279
rtoes 5.06018
lfemur 5.8972 -34.6471 -11.1117
ltibia -3.32823
lfoot -9.07736 33.0687
ltoes -13.4465
615
root 0.503256 17.5369 9.31594 2.90349 9.18085 -8.22371
lowerback 2.79749 -8.38382 -0.0992208
upperback -4.41951 -11.0444 4.15495
thorax -5.30673 -5.40117 5.11655
lowerneck -5.45374 -11.7531 -11.3315
upperneck 37.9082 -17.7367 4.03245
head 15.7933 -8.89058 0.81906
rclavicle -1.39665e-013 -2.90226e-014
rhumerus -72.9483 32.6307 -92.4586
rradius 92.6745
rwrist 41.6213
rhand -31.9058 -23.5734
rfingers 7.12502
rthumb -5.15779 -53.4906
lclavicle -1.39665e-013 -2.90226e-014
lhumerus -99.7739 -79.3673 191.793
lradius 61.5597
lwrist 31.3906
lhand -13.3598 -24.4127
lfingers 7.12502
lthumb 12.7463 5.17822
rfemur -1.07029 17.8704 28.1968
rtibia 10.9229
rfoot -16.4509 -27.3817
rtoes 5.28011
lfemur 5.87858 -34.6408 -11.0782
ltibia -3.34427
lfoot -9.01129 32.967
ltoes -13.619
616
root 0.500374 17.5378 9.31867 2.88078 9.28273 -8.17995
lowerback 2.67481 -8.38756 -0.0938563
upperback -4.34671 -11.0523 4.14944
thorax -5.16199 -5.41035 5.07831
lowerneck -5.42317 -11.7729 -11.4947
upperneck 37.8774 -17.8485 4.31683
head 15.8443 -8.92465 0.940373
rclavicle 1.14301e-014 -1.69961e-014
rhumerus -72.8176 32.6006 -92.3665
rradius 92.8663
rwrist 42.7082
rhand -32.3617 -23.916
rfingers 7.12502
rthumb -5.59799 -53.8221
lclavicle 1.14301e-014 -1.69961e-014
lhumerus -98.9024 -79.6496 190.983
lradius 61.8885
lwrist 33.3266
lhand -9.60829 -23.5831
lfingers 7.12502
lthumb 16.3608 5.74678
rfemur -1.00817 17.8057 28.1744
rtibia 10.8945
rfoot -16.4633 -27.4367
rtoes 5.33746
lfemur 5.93896 -34.7242 -11.1523
ltibia -3.39694
lfoot -8.94704 32.972
ltoes -13.8735
617
root 0.494865 17.5387 9.32156 2.87036 9.25642 -8.15983
lowerback 2.58098 -8.35609 -0.103957
upperback -4.28716 -11.0137 4.13634
thorax -5.04987 -5.39471 5.04492
lowerneck -5.46251 -11.8042 -11.4485
upperneck 37.8757 -17.9035 4.32575
head 15.8537 -8.938 0.924171
rclavicle 7.51033e-015 -3.79679e-014
rhumerus -72.6766 32.6226 -92.3701
rradius 92.9886
rwrist 43.7557
rhand -32.6703 -24.154
rfingers 7.12502
rthumb -5.89586 -54.052
lclavicle 7.51033e-015 -3.79679e-014
lhumerus -100.494 -79.8127 192.55
lradius 62.0825
lwrist 34.061
lhand -8.46112 -23.2581
lfingers 7.12502
lthumb 17.4651 5.97728
rfemur -1.00255 17.8675 28.1899
rtibia 10.9425
rfoot -16.5076 -27.4817
rtoes 5.35452
lfemur 6.05224 -34.8476 -11.2187
ltibia -3.48001
lfoot -8.94212 33.1264
ltoes -13.8726
618
root 0.488259 17.5396 9.32307 2.86532 9.11447 -8.14324
lowerback 2.57719 -8.30402 -0.147738
upperback -4.27667 -10.9465 4.13921
thorax -5.03316 -5.36017 5.06547
lowerneck -5.60519 -11.8322 -11.4139
upperneck 37.9599 -17.9281 4.26722
head 15.92 -8.94327 0.877022
rclavicle -1.2347e-013 -7.15625e-015
rhumerus -72.602 32.7806 -92.4575
rradius 93.1106
rwrist 44.5669
rhand -32.8401 -24.1984
rfingers 7.12502
rthumb -6.05979 -54.0917
lclavicle -1.2347e-013 -7.15625e-015
lhumerus -102.979 -79.8574 195.024
lradius 62.1584
lwrist 34.2062
lhand -8.58259 -23.2828
lfingers 7.12502
lthumb 17.3482 5.96301
rfemur -1.03139 17.9858 28.2095
rtibia 11.0313
rfoot -16.5141 -27.4699
rtoes 5.20978
lfemur 6.16844 -34.8605 -11.2755
ltibia -3.5348
lfoot -9.01592 33.2697
ltoes -13.5648
619
root 0.483938 17.5413 9.32363 2.81224 9.02522 -8.10477
lowerback 2.64082 -8.28126 -0.198934
upperback -4.26341 -10.9186 4.12966
thorax -5.04964 -5.34392 5.09038
lowerneck -5.76303 -11.8631 -11.4713
upperneck 38.042 -17.9727 4.29282
head 16.0158 -8.95832 0.871911
rclavicle -2.54134e-014 3.94588e-014
rhumerus -72.5591 33.0333 -92.6136
rradius 93.2407
rwrist 45.1586
rhand -32.8511 -23.9554
rfingers 7.12502
rthumb -6.07043 -53.8485
lclavicle -2.54134e-014 3.94588e-014
lhumerus -104.864 -79.8651 196.909
lradius 62.18
lwrist 34.231
lhand -8.64688 -23.1996
lfingers 7.12502
lthumb 17.2863 6.05157
rfemur -0.991297 18.0026 28.2016
rtibia 11.0841
rfoot -16.4931 -27.4239
rtoes 5.05735
lfemur 6.3049 -34.8777 -11.3996
ltibia -3.53687
lfoot -9.06141 33.368
ltoes -13.4712
620
root 0.483007 17.5413 9.32343 2.78608 9.05464 -8.0973
lowerback 2.68081 -8.31555 -0.164596
upperback -4.26848 -10.9616 4.13426
thorax -5.07966 -5.36557 5.08684
lowerneck -5.84681 -11.8524 -11.5875
upperneck 38.0942 -17.9765 4.39591
head 16.0934 -8.95856 0.921671
rclavicle 1.12506e-013 -2.88735e-014
rhumerus -72.5442 33.3733 -92.8089
rradius 93.3747
rwrist 45.5962
rhand -32.6995 -23.5891
rfingers 7.12502
rthumb -5.92411 -53.4863
lclavicle 1.12506e-013 -2.88735e-014
lhumerus -107.433 -79.8122 199.428
lradius 62.1023
lwrist 33.4502
lhand -10.0482 -23.6356
lfingers 7.12502
lthumb 15.9373 5.72865
rfemur -0.985554 17.923 28.1907
rtibia 11.1154
rfoot -16.5088 -27.3763
rtoes 5.1423
lfemur 6.31693 -34.9773 -11.4488
ltibia -3.4707
lfoot -9.07543 33.4475
ltoes -13.598
